<mxfile host="app.diagrams.net" agent="Mozilla/5.0 (Macintosh; Intel Mac OS X 10_15_7) AppleWebKit/537.36 (KHTML, like Gecko) Chrome/130.0.0.0 Safari/537.36" version="24.8.4">
  <diagram name="Page-1" id="7MF8Ew8vl3D5NFo9Zbqd">
    <mxGraphModel dx="2165" dy="950" grid="1" gridSize="10" guides="1" tooltips="1" connect="1" arrows="1" fold="1" page="1" pageScale="1" pageWidth="850" pageHeight="1100" math="0" shadow="0">
      <root>
        <mxCell id="0" />
        <mxCell id="1" parent="0" />
        <mxCell id="29NNldXkAV7Hw7aLBAo5-9" style="edgeStyle=orthogonalEdgeStyle;rounded=0;orthogonalLoop=1;jettySize=auto;html=1;exitX=1;exitY=0.5;exitDx=0;exitDy=0;entryX=0;entryY=0.5;entryDx=0;entryDy=0;" parent="1" source="29NNldXkAV7Hw7aLBAo5-5" target="29NNldXkAV7Hw7aLBAo5-7" edge="1">
          <mxGeometry relative="1" as="geometry" />
        </mxCell>
        <mxCell id="29NNldXkAV7Hw7aLBAo5-10" value="performs" style="edgeLabel;html=1;align=center;verticalAlign=middle;resizable=0;points=[];" parent="29NNldXkAV7Hw7aLBAo5-9" vertex="1" connectable="0">
          <mxGeometry x="-0.08" y="-4" relative="1" as="geometry">
            <mxPoint as="offset" />
          </mxGeometry>
        </mxCell>
        <mxCell id="29NNldXkAV7Hw7aLBAo5-11" value="1..*" style="edgeLabel;html=1;align=center;verticalAlign=middle;resizable=0;points=[];" parent="29NNldXkAV7Hw7aLBAo5-9" vertex="1" connectable="0">
          <mxGeometry x="0.72" y="-1" relative="1" as="geometry">
            <mxPoint as="offset" />
          </mxGeometry>
        </mxCell>
        <mxCell id="29NNldXkAV7Hw7aLBAo5-12" value="1..1" style="edgeLabel;html=1;align=center;verticalAlign=middle;resizable=0;points=[];" parent="29NNldXkAV7Hw7aLBAo5-9" vertex="1" connectable="0">
          <mxGeometry x="-0.8267" y="-1" relative="1" as="geometry">
            <mxPoint as="offset" />
          </mxGeometry>
        </mxCell>
        <mxCell id="29NNldXkAV7Hw7aLBAo5-29" style="edgeStyle=orthogonalEdgeStyle;rounded=0;orthogonalLoop=1;jettySize=auto;html=1;entryX=0.5;entryY=0;entryDx=0;entryDy=0;" parent="1" source="29NNldXkAV7Hw7aLBAo5-5" target="29NNldXkAV7Hw7aLBAo5-13" edge="1">
          <mxGeometry relative="1" as="geometry" />
        </mxCell>
        <mxCell id="29NNldXkAV7Hw7aLBAo5-42" value="shops at" style="edgeLabel;html=1;align=center;verticalAlign=middle;resizable=0;points=[];" parent="29NNldXkAV7Hw7aLBAo5-29" vertex="1" connectable="0">
          <mxGeometry x="0.2132" y="-2" relative="1" as="geometry">
            <mxPoint x="2" y="-13" as="offset" />
          </mxGeometry>
        </mxCell>
        <mxCell id="W-q233X-r0qmD1_JbwsH-1" value="0..*" style="edgeLabel;html=1;align=center;verticalAlign=middle;resizable=0;points=[];" parent="29NNldXkAV7Hw7aLBAo5-29" vertex="1" connectable="0">
          <mxGeometry x="-0.7912" relative="1" as="geometry">
            <mxPoint as="offset" />
          </mxGeometry>
        </mxCell>
        <mxCell id="W-q233X-r0qmD1_JbwsH-2" value="1..*" style="edgeLabel;html=1;align=center;verticalAlign=middle;resizable=0;points=[];" parent="29NNldXkAV7Hw7aLBAo5-29" vertex="1" connectable="0">
          <mxGeometry x="0.748" y="-2" relative="1" as="geometry">
            <mxPoint as="offset" />
          </mxGeometry>
        </mxCell>
        <mxCell id="29NNldXkAV7Hw7aLBAo5-5" value="Customer" style="swimlane;whiteSpace=wrap;html=1;" parent="1" vertex="1">
          <mxGeometry x="200" y="150" width="200" height="200" as="geometry" />
        </mxCell>
        <mxCell id="29NNldXkAV7Hw7aLBAo5-6" value="&lt;div style=&quot;text-align: left;&quot;&gt;&lt;span style=&quot;background-color: initial;&quot;&gt;customer_id {PK}&lt;/span&gt;&lt;/div&gt;&lt;div style=&quot;text-align: left;&quot;&gt;&lt;span style=&quot;background-color: initial;&quot;&gt;name&lt;/span&gt;&lt;/div&gt;&lt;div style=&quot;text-align: left;&quot;&gt;&lt;span style=&quot;background-color: initial;&quot;&gt;&lt;span style=&quot;white-space: pre;&quot;&gt;&#x9;&lt;/span&gt;first_name&lt;/span&gt;&lt;/div&gt;&lt;div style=&quot;text-align: left;&quot;&gt;&lt;span style=&quot;white-space: pre;&quot;&gt;&#x9;&lt;/span&gt;last_name&lt;/div&gt;&lt;div style=&quot;text-align: left;&quot;&gt;email {AK}&lt;/div&gt;&lt;div style=&quot;text-align: left;&quot;&gt;address&lt;/div&gt;&lt;div style=&quot;text-align: left;&quot;&gt;&lt;span style=&quot;white-space: pre;&quot;&gt;&#x9;&lt;/span&gt;street&lt;br&gt;&lt;/div&gt;&lt;div style=&quot;text-align: left;&quot;&gt;&lt;span style=&quot;white-space: pre;&quot;&gt;&#x9;&lt;/span&gt;city&lt;br&gt;&lt;/div&gt;&lt;div style=&quot;text-align: left;&quot;&gt;&lt;span style=&quot;white-space: pre;&quot;&gt;&#x9;&lt;/span&gt;state&lt;br&gt;&lt;/div&gt;&lt;div style=&quot;text-align: left;&quot;&gt;&lt;span style=&quot;white-space: pre;&quot;&gt;&#x9;&lt;/span&gt;zipcode&lt;br&gt;&lt;/div&gt;&lt;div style=&quot;text-align: left;&quot;&gt;&lt;span style=&quot;white-space: pre;&quot;&gt;&#x9;&lt;/span&gt;&lt;br&gt;&lt;/div&gt;" style="text;html=1;align=center;verticalAlign=middle;resizable=0;points=[];autosize=1;strokeColor=none;fillColor=none;" parent="29NNldXkAV7Hw7aLBAo5-5" vertex="1">
          <mxGeometry x="15" y="25" width="120" height="170" as="geometry" />
        </mxCell>
        <mxCell id="W-q233X-r0qmD1_JbwsH-4" style="edgeStyle=orthogonalEdgeStyle;rounded=0;orthogonalLoop=1;jettySize=auto;html=1;exitX=0.5;exitY=1;exitDx=0;exitDy=0;entryX=0.5;entryY=0;entryDx=0;entryDy=0;" parent="1" source="29NNldXkAV7Hw7aLBAo5-7" target="29NNldXkAV7Hw7aLBAo5-19" edge="1">
          <mxGeometry relative="1" as="geometry" />
        </mxCell>
        <mxCell id="W-q233X-r0qmD1_JbwsH-6" value="contains" style="edgeLabel;html=1;align=center;verticalAlign=middle;resizable=0;points=[];" parent="W-q233X-r0qmD1_JbwsH-4" vertex="1" connectable="0">
          <mxGeometry x="-0.0563" relative="1" as="geometry">
            <mxPoint as="offset" />
          </mxGeometry>
        </mxCell>
        <mxCell id="W-q233X-r0qmD1_JbwsH-7" value="1..*" style="edgeLabel;html=1;align=center;verticalAlign=middle;resizable=0;points=[];" parent="W-q233X-r0qmD1_JbwsH-4" vertex="1" connectable="0">
          <mxGeometry x="0.88" y="1" relative="1" as="geometry">
            <mxPoint as="offset" />
          </mxGeometry>
        </mxCell>
        <mxCell id="W-q233X-r0qmD1_JbwsH-8" value="0..*" style="edgeLabel;html=1;align=center;verticalAlign=middle;resizable=0;points=[];" parent="W-q233X-r0qmD1_JbwsH-4" vertex="1" connectable="0">
          <mxGeometry x="-0.9037" relative="1" as="geometry">
            <mxPoint as="offset" />
          </mxGeometry>
        </mxCell>
        <mxCell id="29NNldXkAV7Hw7aLBAo5-7" value="Transaction" style="swimlane;whiteSpace=wrap;html=1;" parent="1" vertex="1">
          <mxGeometry x="650" y="150" width="200" height="200" as="geometry" />
        </mxCell>
        <mxCell id="29NNldXkAV7Hw7aLBAo5-8" value="&lt;div style=&quot;text-align: left;&quot;&gt;transaction_id {PK}&lt;/div&gt;&lt;div style=&quot;text-align: left;&quot;&gt;total_amount&lt;/div&gt;&lt;div style=&quot;text-align: left;&quot;&gt;date&lt;/div&gt;" style="text;html=1;align=center;verticalAlign=middle;resizable=0;points=[];autosize=1;strokeColor=none;fillColor=none;" parent="29NNldXkAV7Hw7aLBAo5-7" vertex="1">
          <mxGeometry x="10" y="80" width="130" height="60" as="geometry" />
        </mxCell>
        <mxCell id="29NNldXkAV7Hw7aLBAo5-13" value="Store" style="swimlane;whiteSpace=wrap;html=1;" parent="1" vertex="1">
          <mxGeometry x="200" y="520" width="200" height="200" as="geometry" />
        </mxCell>
        <mxCell id="29NNldXkAV7Hw7aLBAo5-14" value="&lt;div style=&quot;text-align: left;&quot;&gt;name {PPK}&lt;/div&gt;&lt;div style=&quot;text-align: left;&quot;&gt;address {PPK}&lt;/div&gt;&lt;div style=&quot;text-align: left;&quot;&gt;&lt;span style=&quot;white-space: pre;&quot;&gt;&#x9;&lt;/span&gt;street&lt;br&gt;&lt;/div&gt;&lt;div style=&quot;text-align: left;&quot;&gt;&lt;span style=&quot;white-space: pre;&quot;&gt;&#x9;&lt;/span&gt;city&lt;br&gt;&lt;/div&gt;&lt;div style=&quot;text-align: left;&quot;&gt;&lt;span style=&quot;white-space: pre;&quot;&gt;&#x9;&lt;/span&gt;state&lt;br&gt;&lt;/div&gt;&lt;div style=&quot;text-align: left;&quot;&gt;&lt;span style=&quot;white-space: pre;&quot;&gt;&#x9;&lt;/span&gt;zipcode&lt;br&gt;&lt;/div&gt;" style="text;html=1;align=center;verticalAlign=middle;resizable=0;points=[];autosize=1;strokeColor=none;fillColor=none;" parent="29NNldXkAV7Hw7aLBAo5-13" vertex="1">
          <mxGeometry x="25" y="60" width="100" height="100" as="geometry" />
        </mxCell>
        <mxCell id="29NNldXkAV7Hw7aLBAo5-26" style="edgeStyle=orthogonalEdgeStyle;rounded=0;orthogonalLoop=1;jettySize=auto;html=1;exitX=1;exitY=0.5;exitDx=0;exitDy=0;entryX=0;entryY=0.5;entryDx=0;entryDy=0;" parent="1" source="29NNldXkAV7Hw7aLBAo5-15" target="29NNldXkAV7Hw7aLBAo5-13" edge="1">
          <mxGeometry relative="1" as="geometry" />
        </mxCell>
        <mxCell id="29NNldXkAV7Hw7aLBAo5-37" value="works at" style="edgeLabel;html=1;align=center;verticalAlign=middle;resizable=0;points=[];" parent="29NNldXkAV7Hw7aLBAo5-26" vertex="1" connectable="0">
          <mxGeometry x="-0.0594" relative="1" as="geometry">
            <mxPoint as="offset" />
          </mxGeometry>
        </mxCell>
        <mxCell id="29NNldXkAV7Hw7aLBAo5-38" value="1..1" style="edgeLabel;html=1;align=center;verticalAlign=middle;resizable=0;points=[];" parent="29NNldXkAV7Hw7aLBAo5-26" vertex="1" connectable="0">
          <mxGeometry x="0.7483" relative="1" as="geometry">
            <mxPoint as="offset" />
          </mxGeometry>
        </mxCell>
        <mxCell id="29NNldXkAV7Hw7aLBAo5-39" value="1..*" style="edgeLabel;html=1;align=center;verticalAlign=middle;resizable=0;points=[];" parent="29NNldXkAV7Hw7aLBAo5-26" vertex="1" connectable="0">
          <mxGeometry x="-0.8169" relative="1" as="geometry">
            <mxPoint as="offset" />
          </mxGeometry>
        </mxCell>
        <mxCell id="29NNldXkAV7Hw7aLBAo5-15" value="Employee" style="swimlane;whiteSpace=wrap;html=1;" parent="1" vertex="1">
          <mxGeometry x="-190" y="470" width="200" height="200" as="geometry" />
        </mxCell>
        <mxCell id="29NNldXkAV7Hw7aLBAo5-16" value="&lt;div style=&quot;text-align: left;&quot;&gt;employee_id {PK}&lt;/div&gt;&lt;div style=&quot;text-align: left;&quot;&gt;name&lt;/div&gt;&lt;div style=&quot;text-align: left;&quot;&gt;&lt;span style=&quot;white-space: pre;&quot;&gt;&#x9;&lt;/span&gt;first_name&lt;br&gt;&lt;/div&gt;&lt;div style=&quot;text-align: left;&quot;&gt;&lt;span style=&quot;white-space: pre;&quot;&gt;&#x9;&lt;/span&gt;last_name&lt;br&gt;&lt;/div&gt;&lt;div style=&quot;text-align: left;&quot;&gt;role&lt;/div&gt;" style="text;html=1;align=center;verticalAlign=middle;resizable=0;points=[];autosize=1;strokeColor=none;fillColor=none;" parent="29NNldXkAV7Hw7aLBAo5-15" vertex="1">
          <mxGeometry x="15" y="65" width="120" height="90" as="geometry" />
        </mxCell>
        <mxCell id="KP2K6agT-xj-s6NMKlIi-1" style="edgeStyle=orthogonalEdgeStyle;rounded=0;orthogonalLoop=1;jettySize=auto;html=1;entryX=1;entryY=0.5;entryDx=0;entryDy=0;" parent="1" source="29NNldXkAV7Hw7aLBAo5-19" target="29NNldXkAV7Hw7aLBAo5-13" edge="1">
          <mxGeometry relative="1" as="geometry" />
        </mxCell>
        <mxCell id="KP2K6agT-xj-s6NMKlIi-6" value="sold in" style="edgeLabel;html=1;align=center;verticalAlign=middle;resizable=0;points=[];" parent="KP2K6agT-xj-s6NMKlIi-1" vertex="1" connectable="0">
          <mxGeometry x="-0.0049" relative="1" as="geometry">
            <mxPoint as="offset" />
          </mxGeometry>
        </mxCell>
        <mxCell id="KP2K6agT-xj-s6NMKlIi-7" value="0..*" style="edgeLabel;html=1;align=center;verticalAlign=middle;resizable=0;points=[];" parent="KP2K6agT-xj-s6NMKlIi-1" vertex="1" connectable="0">
          <mxGeometry x="0.9396" y="1" relative="1" as="geometry">
            <mxPoint x="9" as="offset" />
          </mxGeometry>
        </mxCell>
        <mxCell id="KP2K6agT-xj-s6NMKlIi-8" value="1..*" style="edgeLabel;html=1;align=center;verticalAlign=middle;resizable=0;points=[];" parent="KP2K6agT-xj-s6NMKlIi-1" vertex="1" connectable="0">
          <mxGeometry x="-0.9292" y="2" relative="1" as="geometry">
            <mxPoint as="offset" />
          </mxGeometry>
        </mxCell>
        <mxCell id="29NNldXkAV7Hw7aLBAo5-19" value="Product" style="swimlane;whiteSpace=wrap;html=1;" parent="1" vertex="1">
          <mxGeometry x="790" y="660" width="200" height="200" as="geometry" />
        </mxCell>
        <mxCell id="29NNldXkAV7Hw7aLBAo5-20" value="&lt;div style=&quot;text-align: left;&quot;&gt;product_id {PK}&lt;/div&gt;&lt;div style=&quot;text-align: left;&quot;&gt;product_name&lt;/div&gt;&lt;div style=&quot;text-align: left;&quot;&gt;description&lt;/div&gt;&lt;div style=&quot;text-align: left;&quot;&gt;price&lt;/div&gt;" style="text;html=1;align=center;verticalAlign=middle;resizable=0;points=[];autosize=1;strokeColor=none;fillColor=none;" parent="29NNldXkAV7Hw7aLBAo5-19" vertex="1">
          <mxGeometry x="20" y="75" width="110" height="70" as="geometry" />
        </mxCell>
        <mxCell id="KP2K6agT-xj-s6NMKlIi-2" value="" style="endArrow=none;html=1;rounded=0;" parent="1" target="KP2K6agT-xj-s6NMKlIi-3" edge="1">
          <mxGeometry width="50" height="50" relative="1" as="geometry">
            <mxPoint x="610" y="760" as="sourcePoint" />
            <mxPoint x="610" y="760" as="targetPoint" />
          </mxGeometry>
        </mxCell>
        <mxCell id="KP2K6agT-xj-s6NMKlIi-3" value="" style="rounded=0;whiteSpace=wrap;html=1;" parent="1" vertex="1">
          <mxGeometry x="450" y="830" width="120" height="60" as="geometry" />
        </mxCell>
        <mxCell id="KP2K6agT-xj-s6NMKlIi-4" value="product_quantity" style="text;html=1;align=center;verticalAlign=middle;resizable=0;points=[];autosize=1;strokeColor=none;fillColor=none;" parent="1" vertex="1">
          <mxGeometry x="455" y="845" width="110" height="30" as="geometry" />
        </mxCell>
        <mxCell id="KP2K6agT-xj-s6NMKlIi-10" value="" style="rounded=0;whiteSpace=wrap;html=1;" parent="1" vertex="1">
          <mxGeometry x="930" y="400" width="120" height="60" as="geometry" />
        </mxCell>
        <mxCell id="KP2K6agT-xj-s6NMKlIi-12" value="" style="endArrow=none;html=1;rounded=0;exitX=0;exitY=0.5;exitDx=0;exitDy=0;" parent="1" edge="1">
          <mxGeometry width="50" height="50" relative="1" as="geometry">
            <mxPoint x="930" y="426" as="sourcePoint" />
            <mxPoint x="860" y="506" as="targetPoint" />
          </mxGeometry>
        </mxCell>
        <mxCell id="KP2K6agT-xj-s6NMKlIi-13" value="product_quantity" style="text;html=1;align=center;verticalAlign=middle;resizable=0;points=[];autosize=1;strokeColor=none;fillColor=none;" parent="1" vertex="1">
          <mxGeometry x="935" y="415" width="110" height="30" as="geometry" />
        </mxCell>
      </root>
    </mxGraphModel>
  </diagram>
</mxfile>
